<?xml version="1.0" encoding="UTF-8"?>
<!DOCTYPE svg PUBLIC "-//W3C//DTD SVG 1.1//EN" "http://www.w3.org/Graphics/SVG/1.1/DTD/svg11.dtd">
<!-- Creator: CorelDRAW 2026 -->
<svg xmlns="http://www.w3.org/2000/svg" xml:space="preserve" width="8.5in" height="2.1in" version="1.1" style="shape-rendering:geometricPrecision; text-rendering:geometricPrecision; image-rendering:optimizeQuality; fill-rule:evenodd; clip-rule:evenodd"
viewBox="0 0 8500 2100"
 xmlns:xlink="http://www.w3.org/1999/xlink"
 xmlns:xodm="http://www.corel.com/coreldraw/odm/2003">
 <defs>
  <style type="text/css">
   <![CDATA[
    .str0 {stroke:#373435;stroke-width:6.94;stroke-miterlimit:2.61313}
    .fil0 {fill:none}
    .fil1 {fill:#B0CA1F}
    .fil5 {fill:#EAC828}
    .fil4 {fill:#373435;fill-rule:nonzero}
    .fil3 {fill:#77AA33;fill-rule:nonzero}
    .fil2 {fill:url(#id2)}
   ]]>
  </style>
   <mask id="id0">
  <radialGradient id="id1" gradientUnits="userSpaceOnUse" cx="-0" cy="-4450" r="0" fx="-0" fy="-4450">
   <stop offset="0" style="stop-opacity:0; stop-color:white"/>
   <stop offset="1" style="stop-opacity:0; stop-color:white"/>
  </radialGradient>
    <rect style="fill:url(#id1)" x="-3.47" y="-4453.47" width="8506.94" height="11006.94"/>
   </mask>
  <linearGradient id="id2" gradientUnits="userSpaceOnUse" x1="1387.28" y1="703.18" x2="2746.79" y2="695.04">
   <stop offset="0" style="stop-opacity:1; stop-color:#B0CA1F"/>
   <stop offset="0.321569" style="stop-opacity:1; stop-color:#D0C81D"/>
   <stop offset="1" style="stop-opacity:1; stop-color:#F1C51A"/>
  </linearGradient>
 </defs>
 <g id="Layer_x0020_1">
  <metadata id="CorelCorpID_0Corel-Layer"/>
  <polygon class="fil0 str0" style="mask:url(#id0)" points="-0,-4450 8500,-4450 8500,6550 -0,6550 "/>
  <g id="_1391111127328">
   <path class="fil1" d="M1701.32 1344.85c-14.56,-36.98 -374.35,-378.03 -440.42,-456.14 -96.36,-113.93 -449.28,-449.97 -591.93,-601.94 -24.67,-26.28 -49.38,-52.5 -74.9,-79.56 -11.07,-11.72 -25.12,-23.05 -36.35,-35.24 -33.78,-36.67 -2.68,-28.7 -41.59,-38.48l-10.26 885.51c0,150.86 0,301.72 0,452.57 0,125.61 -20.97,326.92 54.76,399.34 90.84,86.86 203.3,96.31 322,13.13 203.75,-142.76 406.29,-260.44 617.34,-396.83 35.25,-22.77 191.34,-124.38 201.35,-142.37z"/>
   <path class="fil2" d="M1647.13 538.44c-40.25,16.23 -175.88,112.12 -221.62,141.25 -29.63,18.86 -48.47,27.87 -74.61,49.66 7.59,33.22 21.77,38.28 45.61,59.71l376.49 384.43c34.85,31.27 59.18,62.25 93.33,96.05l479.8 488.56c31.57,32.87 64.98,57.93 96.71,92.64 31.54,34.5 62.83,84.45 105.77,90.2 10.43,-511.98 0.15,-1033.48 0.47,-1546.59 0.07,-105.41 -37.92,-205.91 -143.43,-242.74 -117.5,-41.03 -207.72,22.43 -288.31,79.78 -109.78,78.13 -392.93,242.27 -470.22,307.06z"/>
   <path class="fil3" d="M3176.65 643.14l0 337.3 -74.85 0 -140.58 -213.24 0 213.24 -32.87 0 0 -337.3 61.94 0 153.48 230.68 0 -230.68 32.87 0zm311.2 0l0 33.88 -120.86 0 0 102.15 101.64 0 0 33.88 -101.64 0 0 133.5 141.59 0 0 33.88 -239.19 0 0 -337.3 218.46 0zm332.44 0l-88.41 144.54 107.46 192.76 -108.64 0 -64.73 -118.5 -71.81 118.5 -44 0 95.07 -153.98 -101.73 -183.31 108.39 0 60.26 110.24 65.15 -110.24 42.98 0zm235.09 0l93.81 337.3 -98.28 0 -19.97 -73.33 -101.48 0 -21.49 73.33 -38.26 0 99.79 -337.3 85.88 0zm-116.31 230.09l82.77 0 -39.78 -149.01 -42.98 149.01zm273.52 107.21l0 -337.3 145.22 0c82.52,0 123.81,33.12 123.81,99.37 0,66.93 -45.85,100.38 -137.63,100.38l-33.8 0 0 137.55 -97.6 0zm97.6 -168.9l22 0c35.57,0 53.35,-23.6 53.35,-70.71 0,-44.25 -17.79,-66.33 -53.35,-66.33l-22 0 0 137.04zm378.63 -173.96c98.19,0 147.24,58.07 147.24,174.21 0,116.14 -49.98,174.21 -149.94,174.21 -99.96,0 -149.93,-59.42 -149.93,-178.17 0,-113.53 50.91,-170.25 152.63,-170.25zm-2.7 26.8c-18.45,0 -31.02,10.2 -37.5,30.51 -6.49,20.31 -9.78,59.25 -9.78,116.9 0,57.65 3.29,96.59 9.78,116.9 6.48,20.31 19.05,30.51 37.5,30.51 18.46,0 31.02,-10.2 37.51,-30.51 6.49,-20.31 9.78,-59.25 9.78,-116.9 0,-57.48 -3.28,-96.42 -9.78,-116.82 -6.49,-20.39 -19.05,-30.59 -37.51,-30.59zm230.2 316.06l0 -337.3 144.8 0c37.68,0 67.85,7.93 90.35,23.85 22.59,15.93 33.88,37.25 33.88,64.06 0,40.88 -24.19,67.59 -72.65,79.9 24.86,9.27 40.96,19.39 48.29,30.34 7.33,11.04 12.31,32.45 14.92,64.14 3.12,37.85 9.44,62.88 18.96,75.02l-106.11 0c-6.74,-15.59 -10.11,-35.15 -10.11,-58.5l-0.5 -19.97 -0.51 -25.12c0,-38.85 -15.68,-58.24 -46.94,-58.24l-16.77 0 0 161.82 -97.6 0zm97.6 -189.63l19.72 0c37.09,0 55.63,-19.39 55.63,-58.16 0,-38.77 -18.54,-58.15 -55.63,-58.15l-19.72 0 0 116.31zm494.85 -147.67l0 33.88 -82.43 0 0 303.42 -103.66 0 0 -303.42 -83.44 0 0 -33.88 269.54 0zm282.63 94.65l-45.43 8.43c1.94,-9.1 2.87,-16.69 2.87,-22.84 0,-39.36 -23.77,-59 -71.22,-59 -37.5,0 -56.21,13.49 -56.21,40.54 0,20.23 20.98,37.59 62.87,52.09 80.82,27.81 121.2,69.03 121.2,123.56 0,31.94 -11.38,57.56 -34.05,76.94 -22.76,19.3 -52.93,29 -90.6,29 -83.44,0 -125.16,-32.28 -125.16,-96.92 0,-5.23 0.5,-11.72 1.43,-19.47l47.11 -10.37c-3.7,14.33 -5.56,26.72 -5.56,37.25 0,41.8 23.93,62.7 71.89,62.7 38.35,0 57.57,-15.08 57.57,-45.17 0,-22.42 -22.93,-42.14 -68.86,-59.08 -66.33,-24.36 -99.54,-63.3 -99.54,-116.81 0,-30.34 11.04,-54.7 33.21,-73.24 22.17,-18.54 51.24,-27.81 87.31,-27.81 74.09,0 111.17,33.37 111.17,100.21zm377.35 60.6l139.07 0 0 182.05 -31.1 0 -10.62 -23.18c-27.14,19.13 -55.88,28.74 -86.22,28.74 -49.98,0 -88.75,-14.92 -116.39,-44.84 -27.56,-29.83 -41.39,-71.97 -41.39,-126.25 0,-52.84 14.67,-95.66 43.91,-128.28 29.24,-32.7 67.51,-49.06 114.79,-49.06 62.29,0 100.21,31.86 113.7,95.57l-45.85 20.9 0 -8.17 -0.76 -18.2c-3.12,-39.87 -21.58,-59.76 -55.21,-59.76 -24.78,0 -41.72,10.54 -50.73,31.61 -9.11,21.07 -13.66,60.35 -13.66,117.83 0,53.69 3.71,90.18 11.04,109.4 7.33,19.3 21.32,28.91 42.06,28.91 24.28,0 36.41,-13.48 36.41,-40.46l0 -82.93 -49.05 0 0 -33.88zm321.65 -155.25l0 303.42 138.56 0 0 33.88 -236.16 0 0 -337.3 97.6 0zm333.7 -5.56c98.19,0 147.24,58.07 147.24,174.21 0,116.14 -49.98,174.21 -149.94,174.21 -99.96,0 -149.94,-59.42 -149.94,-178.17 0,-113.53 50.91,-170.25 152.64,-170.25zm-2.7 26.8c-18.45,0 -31.02,10.2 -37.5,30.51 -6.49,20.31 -9.78,59.25 -9.78,116.9 0,57.65 3.29,96.59 9.78,116.9 6.48,20.31 19.05,30.51 37.5,30.51 18.46,0 31.02,-10.2 37.51,-30.51 6.49,-20.31 9.78,-59.25 9.78,-116.9 0,-57.48 -3.29,-96.42 -9.78,-116.82 -6.49,-20.39 -19.05,-30.59 -37.51,-30.59zm229.7 316.06l0 -337.3 149.69 0c77.2,0 115.8,27.65 115.8,82.93 0,39.28 -23.26,64.48 -69.87,75.52 56.05,11.21 84.03,40.96 84.03,89.34 0,59.67 -37.76,89.51 -113.19,89.51l-166.46 0zm97.6 -27.81l27.89 0c36.33,0 54.53,-20.9 54.53,-62.7 0,-47.87 -18.71,-71.81 -56.22,-71.81l-26.21 0 0 134.52zm0 -162.33l30.09 0c27.81,0 41.72,-20.65 41.72,-62.04 0,-38.18 -14.75,-57.31 -44.17,-57.31l-27.64 0 0 119.35zm410.14 -147.16l93.81 337.3 -98.28 0 -19.97 -73.33 -101.48 0 -21.49 73.33 -38.26 0 99.79 -337.3 85.88 0zm-116.31 230.09l82.77 0 -39.78 -149.01 -42.98 149.01zm371.13 -230.09l0 303.42 138.56 0 0 33.88 -236.16 0 0 -337.3 97.6 0z"/>
   <g>
    <path class="fil4" d="M3741.5 1438.94l0 -185.85 64.03 0c14.45,0 25.48,0.86 33.09,2.64 10.65,2.47 19.73,6.92 27.26,13.32 9.82,8.31 17.13,18.86 21.98,31.76 4.89,12.89 7.31,27.65 7.31,44.21 0,14.11 -1.65,26.61 -4.93,37.51 -3.29,10.9 -7.53,19.94 -12.68,27.08 -5.19,7.14 -10.81,12.76 -16.96,16.83 -6.1,4.11 -13.5,7.22 -22.15,9.35 -8.69,2.11 -18.64,3.16 -29.89,3.16l-67.06 0zm24.66 -21.81l39.63 0c12.24,0 21.85,-1.13 28.81,-3.41 6.97,-2.3 12.5,-5.5 16.66,-9.65 5.8,-5.84 10.34,-13.72 13.58,-23.58 3.24,-9.86 4.89,-21.8 4.89,-35.87 0,-19.47 -3.2,-34.43 -9.56,-44.9 -6.36,-10.47 -14.1,-17.48 -23.23,-21.03 -6.57,-2.55 -17.18,-3.81 -31.8,-3.81l-38.98 0 0 142.24zm159.68 21.81l0 -134.72 20.5 0 0 20.64c5.23,-9.56 10.08,-15.88 14.54,-18.91 4.46,-3.07 9.35,-4.59 14.67,-4.59 7.7,0 15.53,2.42 23.49,7.22l-8.13 21.07c-5.54,-3.11 -11.07,-4.67 -16.61,-4.67 -4.97,0 -9.43,1.51 -13.37,4.5 -3.93,2.99 -6.75,7.14 -8.43,12.46 -2.56,8.09 -3.81,16.96 -3.81,26.61l0 70.39 -22.84 0zm86.69 -159.9l0 -25.96 22.84 0 0 25.96 -22.84 0zm0 159.9l0 -134.72 22.84 0 0 134.72 -22.84 0zm94.48 0l-50.83 -134.72 24.44 0 28.81 80.69c3.11,8.7 6.01,17.74 8.65,27.12 2.03,-7.09 4.84,-15.61 8.52,-25.61l29.93 -82.2 23.45 0 -51 134.72 -21.98 0zm184.86 -43.61l23.62 3.11c-3.68,13.72 -10.56,24.4 -20.59,31.97 -10.04,7.57 -22.84,11.38 -38.46,11.38 -19.64,0 -35.21,-6.06 -46.72,-18.17 -11.51,-12.07 -17.26,-29.07 -17.26,-50.92 0,-22.59 5.8,-40.15 17.43,-52.61 11.64,-12.5 26.74,-18.73 45.3,-18.73 17.96,0 32.62,6.1 44,18.34 11.38,12.24 17.09,29.46 17.09,51.66 0,1.34 -0.04,3.37 -0.13,6.06l-100.32 0c0.87,14.76 5.02,26.09 12.54,33.92 7.48,7.83 16.87,11.77 28.07,11.77 8.35,0 15.49,-2.21 21.37,-6.62 5.93,-4.41 10.6,-11.46 14.06,-21.16zm-74.76 -36.6l75.02 0c-1,-11.33 -3.9,-19.81 -8.61,-25.48 -7.23,-8.78 -16.66,-13.19 -28.21,-13.19 -10.47,0 -19.25,3.5 -26.39,10.52 -7.09,7.01 -11.03,16.39 -11.81,28.16zm127.23 80.21l0 -134.72 20.51 0 0 19.12c9.86,-14.66 24.14,-21.98 42.78,-21.98 8.13,0 15.57,1.47 22.37,4.37 6.8,2.9 11.9,6.75 15.27,11.46 3.37,4.72 5.76,10.34 7.1,16.83 0.82,4.24 1.25,11.64 1.25,22.2l0 82.72 -22.84 0 0 -81.85c0,-9.3 -0.87,-16.27 -2.64,-20.85 -1.78,-4.59 -4.93,-8.26 -9.43,-11.03 -4.5,-2.73 -9.82,-4.11 -15.88,-4.11 -9.69,0 -18.04,3.07 -25.09,9.26 -7.06,6.14 -10.56,17.86 -10.56,35.08l0 73.5 -22.84 0zm237.51 0l-21.28 0 0 -185.85 22.84 0 0 66.32c9.65,-12.03 21.93,-18.04 36.9,-18.04 8.27,0 16.14,1.65 23.54,4.98 7.4,3.33 13.46,8.04 18.26,14.06 4.76,6.06 8.52,13.33 11.2,21.85 2.72,8.48 4.06,17.61 4.06,27.3 0,23.01 -5.7,40.84 -17.08,53.39 -11.43,12.59 -25.09,18.86 -41.06,18.86 -15.88,0 -28.33,-6.62 -37.38,-19.81l0 16.96zm-0.26 -68.35c0,16.09 2.21,27.73 6.58,34.91 7.18,11.72 16.87,17.61 29.11,17.61 10,0 18.61,-4.33 25.83,-12.98 7.27,-8.66 10.9,-21.54 10.9,-38.68 0,-17.56 -3.46,-30.5 -10.43,-38.85 -6.96,-8.35 -15.4,-12.55 -25.26,-12.55 -10,0 -18.61,4.33 -25.83,12.98 -7.27,8.65 -10.91,21.16 -10.91,37.55zm122.56 120.14l-2.59 -21.11c5.02,1.34 9.34,2.03 13.06,2.03 5.1,0 9.17,-0.87 12.2,-2.56 3.07,-1.69 5.58,-4.06 7.53,-7.09 1.43,-2.3 3.76,-7.96 6.96,-17.05 0.43,-1.25 1.08,-3.11 2.03,-5.58l-51.13 -135.15 24.4 0 28.12 77.78c3.68,9.82 6.92,20.2 9.82,31.11 2.64,-10.26 5.76,-20.38 9.39,-30.33l28.72 -78.56 22.8 0 -50.92 137.06c-5.5,14.76 -9.78,24.88 -12.85,30.46 -4.06,7.48 -8.74,12.98 -13.97,16.48 -5.28,3.51 -11.55,5.24 -18.82,5.24 -4.41,0 -9.35,-0.91 -14.75,-2.72zm248.37 -51.78l0 -164.05 -61.26 0 0 -21.8 147.18 0 0 21.8 -61.26 0 0 164.05 -24.66 0zm98.56 0l0 -134.72 20.5 0 0 20.64c5.23,-9.56 10.08,-15.88 14.54,-18.91 4.46,-3.07 9.35,-4.59 14.67,-4.59 7.7,0 15.53,2.42 23.49,7.22l-8.13 21.07c-5.54,-3.11 -11.07,-4.67 -16.61,-4.67 -4.97,0 -9.43,1.51 -13.37,4.5 -3.93,2.99 -6.75,7.14 -8.43,12.46 -2.56,8.09 -3.81,16.96 -3.81,26.61l0 70.39 -22.84 0zm174.69 -16.87c-8.48,7.22 -16.65,12.29 -24.49,15.27 -7.83,2.99 -16.22,4.46 -25.22,4.46 -14.8,0 -26.17,-3.59 -34.13,-10.81 -7.96,-7.18 -11.94,-16.4 -11.94,-27.6 0,-6.57 1.51,-12.59 4.5,-18.04 3.03,-5.45 6.96,-9.78 11.81,-13.07 4.89,-3.29 10.34,-5.8 16.44,-7.48 4.5,-1.17 11.29,-2.3 20.34,-3.42 18.43,-2.17 32.06,-4.81 40.75,-7.83 0.08,-3.11 0.13,-5.1 0.13,-5.93 0,-9.26 -2.16,-15.79 -6.49,-19.59 -5.84,-5.15 -14.54,-7.7 -26.04,-7.7 -10.78,0 -18.73,1.91 -23.83,5.67 -5.15,3.76 -8.91,10.43 -11.38,20.03l-22.33 -3.11c2.04,-9.56 5.37,-17.3 10.04,-23.19 4.67,-5.89 11.42,-10.38 20.25,-13.58 8.78,-3.16 19.03,-4.76 30.63,-4.76 11.51,0 20.9,1.34 28.12,4.07 7.18,2.72 12.5,6.1 15.88,10.21 3.37,4.11 5.75,9.3 7.14,15.57 0.74,3.9 1.12,10.91 1.12,20.98l0 30.29c0,21.15 0.48,34.52 1.43,40.19 0.91,5.67 2.81,11.07 5.58,16.27l-23.88 0c-2.3,-4.81 -3.76,-10.43 -4.41,-16.87zm-1.82 -50.62c-8.3,3.37 -20.76,6.23 -37.38,8.57 -9.43,1.34 -16.09,2.86 -19.98,4.54 -3.9,1.69 -6.88,4.15 -9,7.35 -2.11,3.25 -3.2,6.84 -3.2,10.82 0,6.01 2.3,11.07 6.93,15.1 4.63,4.02 11.38,6.06 20.25,6.06 8.78,0 16.61,-1.91 23.49,-5.76 6.84,-3.81 11.9,-9.04 15.1,-15.66 2.47,-5.15 3.68,-12.72 3.68,-22.71l0.13 -8.31zm145.15 67.49l0 -17.09c-8.52,13.28 -21.07,19.94 -37.64,19.94 -10.73,0 -20.59,-2.94 -29.55,-8.87 -9,-5.88 -15.96,-14.15 -20.94,-24.7 -4.93,-10.6 -7.39,-22.76 -7.39,-36.51 0,-13.41 2.25,-25.57 6.7,-36.52 4.5,-10.9 11.2,-19.3 20.16,-25.09 8.91,-5.84 18.95,-8.74 29.98,-8.74 8.13,0 15.35,1.73 21.67,5.15 6.32,3.42 11.46,7.92 15.44,13.41l0 -66.84 22.84 0 0 185.85 -21.28 0zm-72.16 -67.19c0,17.21 3.64,30.06 10.94,38.59 7.27,8.52 15.88,12.76 25.79,12.76 9.99,0 18.47,-4.07 25.48,-12.2 6.96,-8.13 10.47,-20.55 10.47,-37.25 0,-18.34 -3.55,-31.84 -10.69,-40.45 -7.1,-8.61 -15.88,-12.89 -26.3,-12.89 -10.17,0 -18.65,4.11 -25.48,12.37 -6.79,8.27 -10.21,21.29 -10.21,39.07zm221.46 23.57l23.62 3.11c-3.68,13.72 -10.56,24.4 -20.59,31.97 -10.04,7.57 -22.84,11.38 -38.46,11.38 -19.64,0 -35.21,-6.06 -46.72,-18.17 -11.51,-12.07 -17.26,-29.07 -17.26,-50.92 0,-22.59 5.8,-40.15 17.44,-52.61 11.63,-12.5 26.73,-18.73 45.3,-18.73 17.95,0 32.62,6.1 44,18.34 11.38,12.24 17.09,29.46 17.09,51.66 0,1.34 -0.04,3.37 -0.13,6.06l-100.32 0c0.86,14.76 5.02,26.09 12.54,33.92 7.48,7.83 16.87,11.77 28.07,11.77 8.35,0 15.49,-2.21 21.37,-6.62 5.93,-4.41 10.6,-11.46 14.06,-21.16zm-74.76 -36.6l75.02 0c-1,-11.33 -3.89,-19.81 -8.61,-25.48 -7.22,-8.78 -16.66,-13.19 -28.21,-13.19 -10.46,0 -19.25,3.5 -26.39,10.52 -7.09,7.01 -11.03,16.39 -11.81,28.16zm202.72 80.21l0 -185.85 134.2 0 0 21.8 -109.54 0 0 57.11 102.53 0 0 21.81 -102.53 0 0 63.33 113.95 0 0 21.81 -138.61 0zm154.19 0l49.19 -69.78 -45.55 -64.94 28.07 0 21.28 31.8c3.93,5.97 7.05,10.82 9.26,14.62 3.85,-5.41 7.27,-10.3 10.34,-14.67l22.41 -31.76 27.9 0 -45.81 64.94 48.8 69.78 -27.77 0 -27.86 -41.53 -6.36 -9.99 -36 51.52 -27.9 0zm233.36 -49.32l22.32 3.11c-2.46,15.36 -8.7,27.34 -18.77,36.04 -10.08,8.69 -22.5,13.02 -37.17,13.02 -18.39,0 -33.18,-6.01 -44.34,-18.04 -11.21,-12.02 -16.79,-29.24 -16.79,-51.65 0,-14.54 2.42,-27.21 7.23,-38.11 4.8,-10.86 12.11,-19.04 21.97,-24.44 9.82,-5.45 20.51,-8.18 32.11,-8.18 14.57,0 26.56,3.68 35.82,11.08 9.3,7.39 15.27,17.91 17.87,31.49l-22.06 3.37c-2.12,-9.04 -5.84,-15.83 -11.25,-20.42 -5.37,-4.54 -11.86,-6.83 -19.47,-6.83 -11.51,0 -20.85,4.11 -28.08,12.33 -7.18,8.26 -10.77,21.24 -10.77,39.06 0,18.09 3.46,31.19 10.38,39.37 6.97,8.18 16.01,12.29 27.13,12.29 9,0 16.48,-2.73 22.45,-8.22 6.02,-5.45 9.82,-13.89 11.43,-25.26zm133.68 5.71l23.62 3.11c-3.68,13.72 -10.56,24.4 -20.59,31.97 -10.04,7.57 -22.84,11.38 -38.46,11.38 -19.64,0 -35.21,-6.06 -46.72,-18.17 -11.51,-12.07 -17.26,-29.07 -17.26,-50.92 0,-22.59 5.8,-40.15 17.44,-52.61 11.63,-12.5 26.73,-18.73 45.3,-18.73 17.95,0 32.62,6.1 44,18.34 11.38,12.24 17.09,29.46 17.09,51.66 0,1.34 -0.04,3.37 -0.13,6.06l-100.32 0c0.86,14.76 5.02,26.09 12.54,33.92 7.48,7.83 16.87,11.77 28.07,11.77 8.35,0 15.49,-2.21 21.37,-6.62 5.93,-4.41 10.6,-11.46 14.06,-21.16zm-74.76 -36.6l75.02 0c-1,-11.33 -3.89,-19.81 -8.61,-25.48 -7.22,-8.78 -16.66,-13.19 -28.21,-13.19 -10.46,0 -19.25,3.5 -26.39,10.52 -7.09,7.01 -11.03,16.39 -11.81,28.16zm126.71 80.21l0 -185.85 22.84 0 0 185.85 -22.84 0zm57.67 0l0 -185.85 22.84 0 0 185.85 -22.84 0zm150.08 -43.61l23.62 3.11c-3.68,13.72 -10.56,24.4 -20.59,31.97 -10.04,7.57 -22.84,11.38 -38.46,11.38 -19.64,0 -35.21,-6.06 -46.72,-18.17 -11.51,-12.07 -17.26,-29.07 -17.26,-50.92 0,-22.59 5.8,-40.15 17.44,-52.61 11.63,-12.5 26.73,-18.73 45.3,-18.73 17.95,0 32.62,6.1 44,18.34 11.38,12.24 17.09,29.46 17.09,51.66 0,1.34 -0.04,3.37 -0.13,6.06l-100.32 0c0.86,14.76 5.02,26.09 12.54,33.92 7.48,7.83 16.87,11.77 28.07,11.77 8.35,0 15.49,-2.21 21.37,-6.62 5.93,-4.41 10.6,-11.46 14.06,-21.16zm-74.76 -36.6l75.02 0c-1,-11.33 -3.9,-19.81 -8.61,-25.48 -7.22,-8.78 -16.66,-13.19 -28.21,-13.19 -10.46,0 -19.25,3.5 -26.39,10.52 -7.09,7.01 -11.03,16.39 -11.81,28.16zm127.23 80.21l0 -134.72 20.51 0 0 19.12c9.87,-14.66 24.14,-21.98 42.78,-21.98 8.13,0 15.58,1.47 22.37,4.37 6.79,2.9 11.9,6.75 15.27,11.46 3.37,4.72 5.76,10.34 7.09,16.83 0.82,4.24 1.26,11.64 1.26,22.2l0 82.72 -22.84 0 0 -81.85c0,-9.3 -0.87,-16.27 -2.64,-20.85 -1.78,-4.59 -4.93,-8.26 -9.43,-11.03 -4.5,-2.73 -9.82,-4.11 -15.88,-4.11 -9.69,0 -18.04,3.07 -25.09,9.26 -7.05,6.14 -10.56,17.86 -10.56,35.08l0 73.5 -22.84 0zm232.37 -49.32l22.32 3.11c-2.46,15.36 -8.7,27.34 -18.77,36.04 -10.08,8.69 -22.5,13.02 -37.17,13.02 -18.39,0 -33.18,-6.01 -44.34,-18.04 -11.21,-12.02 -16.79,-29.24 -16.79,-51.65 0,-14.54 2.42,-27.21 7.23,-38.11 4.8,-10.86 12.11,-19.04 21.97,-24.44 9.82,-5.45 20.51,-8.18 32.11,-8.18 14.57,0 26.56,3.68 35.82,11.08 9.3,7.39 15.27,17.91 17.87,31.49l-22.06 3.37c-2.12,-9.04 -5.84,-15.83 -11.25,-20.42 -5.37,-4.54 -11.86,-6.83 -19.47,-6.83 -11.51,0 -20.85,4.11 -28.08,12.33 -7.18,8.26 -10.77,21.24 -10.77,39.06 0,18.09 3.46,31.19 10.38,39.37 6.97,8.18 16.01,12.29 27.13,12.29 9,0 16.48,-2.73 22.45,-8.22 6.02,-5.45 9.82,-13.89 11.43,-25.26zm133.68 5.71l23.62 3.11c-3.68,13.72 -10.56,24.4 -20.59,31.97 -10.04,7.57 -22.84,11.38 -38.46,11.38 -19.64,0 -35.21,-6.06 -46.72,-18.17 -11.51,-12.07 -17.26,-29.07 -17.26,-50.92 0,-22.59 5.8,-40.15 17.44,-52.61 11.63,-12.5 26.73,-18.73 45.3,-18.73 17.95,0 32.62,6.1 44,18.34 11.38,12.24 17.09,29.46 17.09,51.66 0,1.34 -0.04,3.37 -0.13,6.06l-100.32 0c0.86,14.76 5.02,26.09 12.54,33.92 7.48,7.83 16.87,11.77 28.07,11.77 8.35,0 15.49,-2.21 21.37,-6.62 5.93,-4.41 10.6,-11.46 14.06,-21.16zm-74.76 -36.6l75.02 0c-1,-11.33 -3.89,-19.81 -8.61,-25.48 -7.22,-8.78 -16.66,-13.19 -28.21,-13.19 -10.46,0 -19.25,3.5 -26.39,10.52 -7.09,7.01 -11.03,16.39 -11.81,28.16z"/>
    <polygon class="fil5" points="3062.8,1320.41 3648.78,1320.41 3648.78,1364.56 3062.8,1364.56 "/>
    <polygon class="fil5" points="6965.79,1347.33 7555.14,1347.33 7555.14,1391.48 6965.79,1391.48 "/>
   </g>
  </g>
 </g>
</svg>
